<mxfile host="app.diagrams.net" modified="2020-12-01T12:43:57.805Z" agent="5.0 (Macintosh; Intel Mac OS X 10_15_7) AppleWebKit/537.36 (KHTML, like Gecko) Chrome/86.0.4240.198 Safari/537.36" etag="ezOOBVAKVbEh7MhnWKXi" version="13.10.0" type="github">
  <diagram id="OCao537z7p0x5XaGtVkd" name="Page-1">
    <mxGraphModel dx="868" dy="581" grid="1" gridSize="10" guides="1" tooltips="1" connect="1" arrows="1" fold="1" page="1" pageScale="1" pageWidth="827" pageHeight="1169" math="0" shadow="0">
      <root>
        <mxCell id="0" />
        <mxCell id="1" parent="0" />
        <mxCell id="2C7E0FPqzWrL0cdZ8UIa-1" value="Meta" style="rounded=0;whiteSpace=wrap;html=1;fillColor=#f5f5f5;strokeColor=#666666;fontColor=#333333;" vertex="1" parent="1">
          <mxGeometry x="130" y="220" width="540" height="40" as="geometry" />
        </mxCell>
        <mxCell id="2C7E0FPqzWrL0cdZ8UIa-3" value="在线数据" style="rounded=0;whiteSpace=wrap;html=1;" vertex="1" parent="1">
          <mxGeometry x="330" y="300" width="180" height="40" as="geometry" />
        </mxCell>
        <mxCell id="2C7E0FPqzWrL0cdZ8UIa-4" value="离线数据" style="rounded=0;whiteSpace=wrap;html=1;dashed=1;dashPattern=1 2;" vertex="1" parent="1">
          <mxGeometry x="130" y="300" width="180" height="40" as="geometry" />
        </mxCell>
        <mxCell id="2C7E0FPqzWrL0cdZ8UIa-5" value="QC" style="rounded=0;whiteSpace=wrap;html=1;dashed=1;" vertex="1" parent="1">
          <mxGeometry x="520" y="270" width="30" height="330" as="geometry" />
        </mxCell>
        <mxCell id="2C7E0FPqzWrL0cdZ8UIa-6" value="监控" style="rounded=0;whiteSpace=wrap;html=1;dashed=1;" vertex="1" parent="1">
          <mxGeometry x="560" y="270" width="30" height="330" as="geometry" />
        </mxCell>
        <mxCell id="2C7E0FPqzWrL0cdZ8UIa-8" value="" style="shape=flexArrow;endArrow=classic;html=1;endWidth=12.413793103448276;endSize=4.379310344827586;width=5;dashed=1;dashPattern=1 1;" edge="1" parent="1">
          <mxGeometry width="50" height="50" relative="1" as="geometry">
            <mxPoint x="413" y="296" as="sourcePoint" />
            <mxPoint x="413" y="266" as="targetPoint" />
          </mxGeometry>
        </mxCell>
        <mxCell id="2C7E0FPqzWrL0cdZ8UIa-9" value="发布" style="edgeLabel;html=1;align=center;verticalAlign=middle;resizable=0;points=[];" vertex="1" connectable="0" parent="2C7E0FPqzWrL0cdZ8UIa-8">
          <mxGeometry x="-0.2841" y="1" relative="1" as="geometry">
            <mxPoint as="offset" />
          </mxGeometry>
        </mxCell>
        <mxCell id="2C7E0FPqzWrL0cdZ8UIa-10" value="" style="shape=flexArrow;endArrow=classic;html=1;endWidth=12.413793103448276;endSize=4.379310344827586;width=5;dashed=1;dashPattern=1 1;" edge="1" parent="1">
          <mxGeometry width="50" height="50" relative="1" as="geometry">
            <mxPoint x="219.66" y="295.0000000000001" as="sourcePoint" />
            <mxPoint x="219.66" y="265.0000000000001" as="targetPoint" />
          </mxGeometry>
        </mxCell>
        <mxCell id="2C7E0FPqzWrL0cdZ8UIa-11" value="发布" style="edgeLabel;html=1;align=center;verticalAlign=middle;resizable=0;points=[];" vertex="1" connectable="0" parent="2C7E0FPqzWrL0cdZ8UIa-10">
          <mxGeometry x="-0.2841" y="1" relative="1" as="geometry">
            <mxPoint as="offset" />
          </mxGeometry>
        </mxCell>
        <mxCell id="2C7E0FPqzWrL0cdZ8UIa-14" value="hot velocity" style="rounded=0;whiteSpace=wrap;html=1;" vertex="1" parent="1">
          <mxGeometry x="390" y="350" width="50" height="30" as="geometry" />
        </mxCell>
        <mxCell id="2C7E0FPqzWrL0cdZ8UIa-15" value="velocity" style="rounded=0;whiteSpace=wrap;html=1;" vertex="1" parent="1">
          <mxGeometry x="330" y="350" width="50" height="30" as="geometry" />
        </mxCell>
        <mxCell id="2C7E0FPqzWrL0cdZ8UIa-16" value="动态pipeline" style="rounded=0;whiteSpace=wrap;html=1;dashed=1;dashPattern=1 1;" vertex="1" parent="1">
          <mxGeometry x="130" y="390" width="380" height="30" as="geometry" />
        </mxCell>
        <mxCell id="2C7E0FPqzWrL0cdZ8UIa-17" value="回流管理" style="rounded=0;whiteSpace=wrap;html=1;dashed=1;dashPattern=1 1;" vertex="1" parent="1">
          <mxGeometry x="230" y="350" width="80" height="30" as="geometry" />
        </mxCell>
        <mxCell id="2C7E0FPqzWrL0cdZ8UIa-18" value="&lt;span&gt;血缘&lt;br&gt;管理&lt;/span&gt;" style="rounded=0;whiteSpace=wrap;html=1;" vertex="1" parent="1">
          <mxGeometry x="600" y="270" width="30" height="330" as="geometry" />
        </mxCell>
        <mxCell id="2C7E0FPqzWrL0cdZ8UIa-20" value="" style="rounded=0;whiteSpace=wrap;html=1;" vertex="1" parent="1">
          <mxGeometry x="130" y="490" width="380" height="50" as="geometry" />
        </mxCell>
        <mxCell id="2C7E0FPqzWrL0cdZ8UIa-21" value="hive" style="rounded=0;whiteSpace=wrap;html=1;" vertex="1" parent="1">
          <mxGeometry x="140" y="500" width="80" height="30" as="geometry" />
        </mxCell>
        <mxCell id="2C7E0FPqzWrL0cdZ8UIa-22" value="欧拉元数据" style="rounded=0;whiteSpace=wrap;html=1;" vertex="1" parent="1">
          <mxGeometry x="236" y="500" width="80" height="30" as="geometry" />
        </mxCell>
        <mxCell id="2C7E0FPqzWrL0cdZ8UIa-23" value="实时流管理" style="rounded=0;whiteSpace=wrap;html=1;" vertex="1" parent="1">
          <mxGeometry x="330" y="500" width="80" height="30" as="geometry" />
        </mxCell>
        <mxCell id="2C7E0FPqzWrL0cdZ8UIa-25" value="灯塔流" style="rounded=0;whiteSpace=wrap;html=1;" vertex="1" parent="1">
          <mxGeometry x="420" y="500" width="80" height="30" as="geometry" />
        </mxCell>
        <mxCell id="2C7E0FPqzWrL0cdZ8UIa-26" value="&lt;font style=&quot;font-size: 10px&quot;&gt;数据接入&lt;/font&gt;" style="text;html=1;strokeColor=none;fillColor=none;align=center;verticalAlign=middle;whiteSpace=wrap;rounded=0;dashed=1;" vertex="1" parent="1">
          <mxGeometry x="60" y="502.5" width="60" height="25" as="geometry" />
        </mxCell>
        <mxCell id="2C7E0FPqzWrL0cdZ8UIa-27" value="&lt;font style=&quot;font-size: 10px&quot;&gt;数据存储&lt;/font&gt;" style="text;html=1;strokeColor=none;fillColor=none;align=center;verticalAlign=middle;whiteSpace=wrap;rounded=0;dashed=1;" vertex="1" parent="1">
          <mxGeometry x="60" y="563" width="60" height="25" as="geometry" />
        </mxCell>
        <mxCell id="2C7E0FPqzWrL0cdZ8UIa-28" value="" style="rounded=0;whiteSpace=wrap;html=1;" vertex="1" parent="1">
          <mxGeometry x="130" y="553" width="380" height="50" as="geometry" />
        </mxCell>
        <mxCell id="2C7E0FPqzWrL0cdZ8UIa-29" value="redis" style="rounded=0;whiteSpace=wrap;html=1;" vertex="1" parent="1">
          <mxGeometry x="150" y="563" width="80" height="30" as="geometry" />
        </mxCell>
        <mxCell id="2C7E0FPqzWrL0cdZ8UIa-30" value="es" style="rounded=0;whiteSpace=wrap;html=1;" vertex="1" parent="1">
          <mxGeometry x="250" y="563" width="80" height="30" as="geometry" />
        </mxCell>
        <mxCell id="2C7E0FPqzWrL0cdZ8UIa-31" value="hbase" style="rounded=0;whiteSpace=wrap;html=1;" vertex="1" parent="1">
          <mxGeometry x="350" y="563" width="80" height="30" as="geometry" />
        </mxCell>
        <mxCell id="2C7E0FPqzWrL0cdZ8UIa-32" value="&lt;font style=&quot;font-size: 10px&quot;&gt;。。。&lt;/font&gt;" style="text;html=1;strokeColor=none;fillColor=none;align=center;verticalAlign=middle;whiteSpace=wrap;rounded=0;dashed=1;" vertex="1" parent="1">
          <mxGeometry x="440" y="565.5" width="60" height="25" as="geometry" />
        </mxCell>
        <mxCell id="2C7E0FPqzWrL0cdZ8UIa-33" value="" style="rounded=0;whiteSpace=wrap;html=1;dashed=1;" vertex="1" parent="1">
          <mxGeometry x="130" y="430" width="380" height="50" as="geometry" />
        </mxCell>
        <mxCell id="2C7E0FPqzWrL0cdZ8UIa-34" value="&lt;font style=&quot;font-size: 10px&quot;&gt;运行时管理&lt;/font&gt;" style="text;html=1;strokeColor=none;fillColor=none;align=center;verticalAlign=middle;whiteSpace=wrap;rounded=0;dashed=1;" vertex="1" parent="1">
          <mxGeometry x="60" y="442.5" width="60" height="25" as="geometry" />
        </mxCell>
        <mxCell id="2C7E0FPqzWrL0cdZ8UIa-35" value="太极Spark" style="rounded=0;whiteSpace=wrap;html=1;dashed=1;" vertex="1" parent="1">
          <mxGeometry x="156" y="436.5" width="80" height="37" as="geometry" />
        </mxCell>
        <mxCell id="2C7E0FPqzWrL0cdZ8UIa-36" value="OceanusFlink" style="rounded=0;whiteSpace=wrap;html=1;" vertex="1" parent="1">
          <mxGeometry x="280" y="436.5" width="80" height="37" as="geometry" />
        </mxCell>
        <mxCell id="2C7E0FPqzWrL0cdZ8UIa-37" value="&lt;font style=&quot;font-size: 10px&quot;&gt;。。。&lt;/font&gt;" style="text;html=1;strokeColor=none;fillColor=none;align=center;verticalAlign=middle;whiteSpace=wrap;rounded=0;dashed=1;" vertex="1" parent="1">
          <mxGeometry x="400" y="442.5" width="60" height="25" as="geometry" />
        </mxCell>
        <mxCell id="2C7E0FPqzWrL0cdZ8UIa-38" value="service" style="rounded=0;whiteSpace=wrap;html=1;dashed=1;" vertex="1" parent="1">
          <mxGeometry x="450" y="350" width="50" height="30" as="geometry" />
        </mxCell>
        <mxCell id="2C7E0FPqzWrL0cdZ8UIa-39" value="画像" style="rounded=0;whiteSpace=wrap;html=1;" vertex="1" parent="1">
          <mxGeometry x="130" y="180" width="100" height="30" as="geometry" />
        </mxCell>
        <mxCell id="2C7E0FPqzWrL0cdZ8UIa-40" value="反作弊" style="rounded=0;whiteSpace=wrap;html=1;" vertex="1" parent="1">
          <mxGeometry x="260" y="180" width="100" height="30" as="geometry" />
        </mxCell>
        <mxCell id="2C7E0FPqzWrL0cdZ8UIa-41" value="搜索" style="rounded=0;whiteSpace=wrap;html=1;" vertex="1" parent="1">
          <mxGeometry x="400" y="180" width="100" height="30" as="geometry" />
        </mxCell>
        <mxCell id="2C7E0FPqzWrL0cdZ8UIa-42" value="模型服务" style="rounded=0;whiteSpace=wrap;html=1;" vertex="1" parent="1">
          <mxGeometry x="530" y="180" width="100" height="30" as="geometry" />
        </mxCell>
        <mxCell id="2C7E0FPqzWrL0cdZ8UIa-44" value="&lt;b&gt;&lt;font color=&quot;#00cc00&quot;&gt;已完成&lt;/font&gt;&lt;/b&gt;" style="rounded=0;whiteSpace=wrap;html=1;" vertex="1" parent="1">
          <mxGeometry x="130" y="90" width="40" height="20" as="geometry" />
        </mxCell>
        <mxCell id="2C7E0FPqzWrL0cdZ8UIa-45" value="&lt;font color=&quot;#999900&quot;&gt;待完成&lt;/font&gt;" style="rounded=0;whiteSpace=wrap;html=1;dashed=1;" vertex="1" parent="1">
          <mxGeometry x="130" y="120" width="40" height="20" as="geometry" />
        </mxCell>
        <mxCell id="2C7E0FPqzWrL0cdZ8UIa-46" value="&lt;font style=&quot;font-size: 12px&quot;&gt;维度&lt;br&gt;管理&lt;/font&gt;" style="rounded=0;whiteSpace=wrap;html=1;" vertex="1" parent="1">
          <mxGeometry x="640" y="270" width="30" height="330" as="geometry" />
        </mxCell>
        <mxCell id="2C7E0FPqzWrL0cdZ8UIa-47" value="数据拓扑" style="rounded=0;whiteSpace=wrap;html=1;dashed=1;dashPattern=1 1;" vertex="1" parent="1">
          <mxGeometry x="130" y="350" width="80" height="30" as="geometry" />
        </mxCell>
      </root>
    </mxGraphModel>
  </diagram>
</mxfile>
